<?xml version="1.0" standalone="no"?>
<!DOCTYPE svg PUBLIC "-//W3C//DTD SVG 20010904//EN"
 "http://www.w3.org/TR/2001/REC-SVG-20010904/DTD/svg10.dtd">
<svg version="1.0" xmlns="http://www.w3.org/2000/svg"
 width="192.000000pt" height="169.000000pt" viewBox="0 0 192.000000 169.000000"
 preserveAspectRatio="xMidYMid meet">

<g transform="translate(0.000000,169.000000) scale(0.100000,-0.100000)"
fill="#000000" stroke="none">
<path d="M540 1210 c-13 -8 -15 -60 -18 -346 -3 -409 -11 -384 113 -384 73 0
86 3 95 19 15 29 14 693 -2 709 -14 14 -166 16 -188 2z m168 -232 l2 -208 -75
0 -75 0 0 203 c0 112 3 207 7 211 4 4 37 6 73 4 l65 -3 3 -207z m2 -278 l0
-40 -75 0 -75 0 0 40 0 40 75 0 75 0 0 -40z m-2 -127 l-3 -58 -72 -3 -73 -3 0
61 0 60 75 0 76 0 -3 -57z"/>
<path d="M799 1204 c-20 -24 -26 -656 -6 -694 12 -24 17 -25 102 -25 85 0 90
1 102 25 18 36 18 644 0 680 -12 23 -18 25 -98 28 -71 2 -88 0 -100 -14z m169
-186 l2 -168 -75 0 -75 0 0 163 c0 90 3 167 7 171 4 4 37 6 73 4 l65 -3 3
-167z m2 -243 l0 -35 -75 0 -75 0 0 35 0 35 75 0 75 0 0 -35z m-2 -167 l-3
-93 -70 0 -70 0 -3 93 -3 92 76 0 76 0 -3 -92z"/>
<path d="M1093 1199 c-49 -15 -64 -25 -69 -43 -7 -28 171 -632 194 -658 19
-22 40 -22 115 -1 103 29 103 15 -3 370 -50 170 -98 318 -106 331 -18 27 -48
28 -131 1z m107 -31 c10 -23 110 -352 110 -362 0 -7 -140 -50 -144 -45 -1 2
-27 87 -58 189 -34 113 -52 189 -46 195 9 11 94 43 116 44 7 1 17 -9 22 -21z
m136 -445 c6 -31 6 -31 -62 -52 -38 -11 -72 -17 -75 -13 -4 4 -10 21 -13 38
-7 30 -6 30 61 50 37 11 71 18 75 14 4 -3 10 -20 14 -37z m34 -114 c7 -28 9
-54 4 -59 -9 -8 -109 -40 -125 -40 -8 0 -42 101 -36 106 3 3 130 43 139 43 3
1 11 -22 18 -50z"/>
</g>
</svg>
